<svg width="216" height="128" viewBox="0 0 216 128" fill="none" xmlns="http://www.w3.org/2000/svg">
<g style="mix-blend-mode:overlay">
<path d="M51 55.0615C32 78.0615 34 89.5 -22 93.5L-2 -1C39.3333 -10.8333 109.147 -21.8008 104.5 10.0615C97.5 58.0615 60.8768 43.1054 51 55.0615Z" fill="#F3A492"/>
<path d="M162.5 157.062C193.7 175.862 209.5 171.562 213.5 167.062C223.167 135.728 242.5 68.5615 242.5 50.5615C242.5 28.0615 227 -1.43851 211.5 -3.43851C196 -5.43851 182.656 36.937 162.5 53.0615C132.5 77.0615 112.868 74.0615 109 105.561C106.154 128.733 123.5 133.562 162.5 157.062Z" fill="#F3A492"/>
</g>
</svg>
